<?xml version="1.0" encoding="UTF-8" standalone="no"?>
<!-- Created with Inkscape (http://www.inkscape.org/) -->

<svg
   xmlns:dc="http://purl.org/dc/elements/1.1/"
   xmlns:cc="http://creativecommons.org/ns#"
   xmlns:rdf="http://www.w3.org/1999/02/22-rdf-syntax-ns#"
   xmlns:svg="http://www.w3.org/2000/svg"
   xmlns="http://www.w3.org/2000/svg"
   xmlns:sodipodi="http://sodipodi.sourceforge.net/DTD/sodipodi-0.dtd"
   xmlns:inkscape="http://www.inkscape.org/namespaces/inkscape"
   width="72"
   height="50"
   id="svg2"
   version="1.1"
   inkscape:version="0.48.4 r9939"
   sodipodi:docname="logo_with_hands.png">
  <defs
     id="defs4" />
  <sodipodi:namedview
     id="base"
     pagecolor="#ffffff"
     bordercolor="#666666"
     borderopacity="1.0"
     inkscape:pageopacity="0.0"
     inkscape:pageshadow="2"
     inkscape:zoom="2.9703129"
     inkscape:cx="36.019588"
     inkscape:cy="20.971742"
     inkscape:document-units="px"
     inkscape:current-layer="layer1"
     showgrid="false"
     showguides="false"
     inkscape:guide-bbox="true"
     inkscape:window-width="1920"
     inkscape:window-height="1056"
     inkscape:window-x="1920"
     inkscape:window-y="24"
     inkscape:window-maximized="1"
     height="80px">
    <sodipodi:guide
       orientation="0,1"
       position="-8.4780972,499.437"
       id="guide3775" />
    <sodipodi:guide
       orientation="0,1"
       position="32.370917,599.6327"
       id="guide3777" />
    <sodipodi:guide
       orientation="0,1"
       position="87.863917,400.78278"
       id="guide3779" />
    <sodipodi:guide
       orientation="1,0"
       position="97.883486,806.18997"
       id="guide3781" />
    <inkscape:grid
       type="xygrid"
       id="grid3003"
       empspacing="5"
       visible="true"
       enabled="true"
       snapvisiblegridlinesonly="true" />
    <sodipodi:guide
       orientation="0,1"
       position="160,360"
       id="guide3007" />
  </sodipodi:namedview>
  <metadata
     id="metadata7">
    <rdf:RDF>
      <cc:Work
         rdf:about="">
        <dc:format>image/svg+xml</dc:format>
        <dc:type
           rdf:resource="http://purl.org/dc/dcmitype/StillImage" />
        <dc:title></dc:title>
      </cc:Work>
    </rdf:RDF>
  </metadata>
  <g
     inkscape:label="Layer 1"
     inkscape:groupmode="layer"
     id="layer1"
     transform="translate(0,-1002.3622)">
    <path
       style="fill:none;stroke:#00a0ff;stroke-width:1px;stroke-linecap:butt;stroke-linejoin:miter;stroke-opacity:1"
       d="m 27.219979,1036.9267 c 0,0 0,0 -1.009625,2.8925 -1.009725,2.8926 -6.636523,7.3946 -6.636523,7.3946 0,0 -4.246961,3.479 -5.419812,3.6819 -1.846281,0.792 -3.016916,-1.0857 -3.016916,-1.0857 l 6.934794,-4.9939 c 0,0 -6.029059,4.2937 -7.016386,5.0805 -1.40816,0.7869 -3.182674,-0.9965 -3.182674,-0.9965 l 8.764096,-7.0732 c 0,0 -7.937793,6.113 -9.018958,6.9965 -1.41783,0.4626 -2.935223,-1.1723 -2.935223,-1.1723 l 10.627987,-7.9745 c 0,0 -9.554024,6.6802 -10.630458,7.8904 -1.076334,0.621 -2.51881,-1.6105 -1.514187,-2.8184 0.654751,-0.7872 11.474167,-7.831 11.474167,-7.831 l -4.538161,3.1646 c 0,0 0,0 -2.16512,0.8214 -2.165221,0.8214 -2.259107,-2.3756 -2.259107,-2.3756 l 7.613957,-4.5179 c 0,0 1.583848,-1.4146 5.614595,-1.7856 4.030857,-0.371 4.030857,-2.371 4.030857,-2.371"
       id="path3012"
       inkscape:connector-curvature="0"
       sodipodi:nodetypes="cccccccccccccscccccsc" />
    <path
       style="fill:none;stroke:#00a0ff;stroke-width:1px;stroke-linecap:butt;stroke-linejoin:miter;stroke-opacity:1"
       d="m 45.42211,1035.8252 c 0,0 0,0 1.009625,2.8925 1.009725,2.8926 6.636522,7.3946 6.636522,7.3946 0,0 4.246961,3.479 5.419812,3.6819 1.84628,0.792 3.016915,-1.0857 3.016915,-1.0857 l -6.934793,-4.9939 c 0,0 6.029058,4.2937 7.016386,5.0805 1.40816,0.7869 3.182674,-0.9965 3.182674,-0.9965 l -8.764096,-7.0732 c 0,0 7.937793,6.113 9.018958,6.9965 1.41783,0.4626 2.935223,-1.1723 2.935223,-1.1723 l -10.627987,-7.9745 c 0,0 9.554024,6.6802 10.630458,7.8904 1.076334,0.621 2.51881,-1.6105 1.514187,-2.8184 -0.654751,-0.7872 -11.474166,-7.831 -11.474166,-7.831 l 4.538159,3.1646 c 0,0 0,0 2.165121,0.8214 2.165221,0.8214 2.259107,-2.3756 2.259107,-2.3756 l -7.613957,-4.5179 c 0,0 -1.583847,-1.4146 -5.614594,-1.7856 -4.030857,-0.371 -4.030857,-2.371 -4.030857,-2.371"
       id="path3012-5"
       inkscape:connector-curvature="0"
       sodipodi:nodetypes="cccccccccccccscccccsc" />
    <g
       id="g4575"
       transform="matrix(0.15543357,0,0,0.15543357,16.925023,997.40063)">
      <path
         transform="matrix(0.89933288,0,0,0.89933288,-131.35438,-332.34878)"
         sodipodi:open="true"
         sodipodi:end="12.207335"
         sodipodi:start="5.9269148"
         d="m 390.73037,490.3225 c 21.37886,57.44675 -7.85994,121.34753 -65.30668,142.72638 -57.44675,21.37886 -121.34753,-7.85994 -142.72639,-65.30668 -21.37886,-57.44675 7.85994,-121.34753 65.30669,-142.72639 57.33445,-21.33707 121.12342,7.74398 142.61895,65.01922"
         sodipodi:ry="110.986"
         sodipodi:rx="110.986"
         sodipodi:cy="529.03235"
         sodipodi:cx="286.71384"
         id="path2985"
         style="color:#000000;fill:#00a0ff;fill-opacity:1;stroke:none;stroke-width:2;marker:none;visibility:visible;display:inline;overflow:visible;enable-background:accumulate"
         sodipodi:type="arc" />
      <path
         transform="matrix(0.84726368,0,0,0.86114874,-116.20594,-311.90908)"
         sodipodi:open="true"
         sodipodi:end="12.207335"
         sodipodi:start="5.9269148"
         d="m 390.73037,490.3225 c 21.37886,57.44675 -7.85994,121.34753 -65.30668,142.72638 -57.44675,21.37886 -121.34753,-7.85994 -142.72639,-65.30668 -21.37886,-57.44675 7.85994,-121.34753 65.30669,-142.72639 57.33445,-21.33707 121.12342,7.74398 142.61895,65.01922"
         sodipodi:ry="110.986"
         sodipodi:rx="110.986"
         sodipodi:cy="529.03235"
         sodipodi:cx="286.71384"
         id="path2985-7"
         style="color:#000000;fill:#fdfaff;fill-opacity:1;stroke:none;stroke-width:1.75607431;marker:none;visibility:visible;display:inline;overflow:visible;enable-background:accumulate"
         sodipodi:type="arc" />
      <path
         transform="matrix(0.33351422,0,0,0.33897989,31.093138,-35.664785)"
         sodipodi:open="true"
         sodipodi:end="12.207335"
         sodipodi:start="5.9269148"
         d="m 390.73037,490.3225 c 21.37886,57.44675 -7.85994,121.34753 -65.30668,142.72638 -57.44675,21.37886 -121.34753,-7.85994 -142.72639,-65.30668 -21.37886,-57.44675 7.85994,-121.34753 65.30669,-142.72639 57.33445,-21.33707 121.12342,7.74398 142.61895,65.01922"
         sodipodi:ry="110.986"
         sodipodi:rx="110.986"
         sodipodi:cy="529.03235"
         sodipodi:cx="286.71384"
         id="path2985-7-5"
         style="color:#000000;fill:#00a0ff;fill-opacity:1;stroke:none;stroke-width:2;marker:none;visibility:visible;display:inline;overflow:visible;enable-background:accumulate"
         sodipodi:type="arc" />
      <path
         sodipodi:nodetypes="cc"
         inkscape:connector-curvature="0"
         id="path3005"
         d="m 127.45721,143.81276 95,0"
         style="fill:none;stroke:#00a0ff;stroke-width:6.4000001;stroke-linecap:butt;stroke-linejoin:miter;stroke-miterlimit:4;stroke-opacity:1;stroke-dasharray:none" />
    </g>
    <g
       id="g4581"
       transform="matrix(0.15543357,0,0,0.15543357,17.282386,991.80501)">
      <g
         transform="translate(-94.3191,-417.59052)"
         id="g3850">
        <path
           sodipodi:type="arc"
           style="color:#000000;fill:#00a0ff;fill-opacity:1;stroke:none;stroke-width:2;marker:none;visibility:visible;display:inline;overflow:visible;enable-background:accumulate"
           id="path2985-5"
           sodipodi:cx="286.71384"
           sodipodi:cy="529.03235"
           sodipodi:rx="110.986"
           sodipodi:ry="110.986"
           d="m 390.73037,490.3225 c 21.37886,57.44675 -7.85994,121.34753 -65.30668,142.72638 -57.44675,21.37886 -121.34753,-7.85994 -142.72639,-65.30668 -21.37886,-57.44675 7.85994,-121.34753 65.30669,-142.72639 57.33445,-21.33707 121.12342,7.74398 142.61895,65.01922"
           sodipodi:start="5.9269148"
           sodipodi:end="12.207335"
           sodipodi:open="true"
           transform="matrix(0.89933288,0,0,0.89933288,-37.420652,222.04724)" />
        <path
           sodipodi:nodetypes="csssc"
           inkscape:connector-curvature="0"
           id="path2985-7-9"
           d="m 390.73037,490.3225 c 21.37886,57.44675 -7.85994,121.34753 -65.30668,142.72638 -57.44675,21.37886 -121.34753,-7.85994 -142.72639,-65.30668 -21.37886,-57.44675 7.85994,-121.34753 65.30669,-142.72639 57.33445,-21.33707 121.12342,7.74398 142.61895,65.01922"
           style="color:#000000;fill:#fdfaff;fill-opacity:1;stroke:none;stroke-width:2;marker:none;visibility:visible;display:inline;overflow:visible;enable-background:accumulate"
           transform="matrix(0.84726368,0,0,0.86114874,-22.272212,242.48693)" />
        <path
           sodipodi:type="arc"
           style="color:#000000;fill:#00a0ff;fill-opacity:1;stroke:none;stroke-width:2;marker:none;visibility:visible;display:inline;overflow:visible;enable-background:accumulate"
           id="path2985-7-5-1"
           sodipodi:cx="286.71384"
           sodipodi:cy="529.03235"
           sodipodi:rx="110.986"
           sodipodi:ry="110.986"
           d="m 390.73037,490.3225 c 21.37886,57.44675 -7.85994,121.34753 -65.30668,142.72638 -57.44675,21.37886 -121.34753,-7.85994 -142.72639,-65.30668 -21.37886,-57.44675 7.85994,-121.34753 65.30669,-142.72639 57.33445,-21.33707 121.12342,7.74398 142.61895,65.01922"
           sodipodi:start="5.9269148"
           sodipodi:end="12.207335"
           sodipodi:open="true"
           transform="matrix(0.33351422,0,0,0.33897989,125.02686,518.73123)" />
      </g>
      <path
         inkscape:connector-curvature="0"
         id="path3009"
         d="m 27.45721,283.24976 80,0"
         style="fill:none;stroke:#00a0ff;stroke-width:6.19999981;stroke-linecap:butt;stroke-linejoin:miter;stroke-miterlimit:4;stroke-opacity:1;stroke-dasharray:none" />
    </g>
    <path
       transform="matrix(0.01724077,0,0,0.01752332,29.969416,1023.5926)"
       sodipodi:open="true"
       sodipodi:end="12.207335"
       sodipodi:start="5.9269148"
       d="m 390.73037,490.3225 a 110.986,110.986 0 1 1 -0.10743,-0.28747"
       sodipodi:ry="110.986"
       sodipodi:rx="110.986"
       sodipodi:cy="529.03235"
       sodipodi:cx="286.71384"
       id="path2985-7-5-19"
       style="color:#000000;fill:#ffffff;fill-opacity:1;stroke:none;stroke-width:2;marker:none;visibility:visible;display:inline;overflow:visible;enable-background:accumulate"
       sodipodi:type="arc" />
    <path
       transform="matrix(0.01724077,0,0,0.01752332,29.969416,1007.9967)"
       sodipodi:open="true"
       sodipodi:end="12.207335"
       sodipodi:start="5.9269148"
       d="m 390.73037,490.3225 a 110.986,110.986 0 1 1 -0.10743,-0.28747"
       sodipodi:ry="110.986"
       sodipodi:rx="110.986"
       sodipodi:cy="529.03235"
       sodipodi:cx="286.71384"
       id="path2985-7-5-19-7"
       style="color:#000000;fill:#ffffff;fill-opacity:1;stroke:none;stroke-width:2;marker:none;visibility:visible;display:inline;overflow:visible;enable-background:accumulate"
       sodipodi:type="arc" />
  </g>
</svg>
