<?xml version="1.0" encoding="UTF-8" standalone="no"?>
<!-- Created with Inkscape (http://www.inkscape.org/) -->

<svg
   xmlns:dc="http://purl.org/dc/elements/1.1/"
   xmlns:cc="http://creativecommons.org/ns#"
   xmlns:rdf="http://www.w3.org/1999/02/22-rdf-syntax-ns#"
   xmlns:svg="http://www.w3.org/2000/svg"
   xmlns="http://www.w3.org/2000/svg"
   xmlns:sodipodi="http://sodipodi.sourceforge.net/DTD/sodipodi-0.dtd"
   xmlns:inkscape="http://www.inkscape.org/namespaces/inkscape"
   version="1.1"
   width="214"
   height="41.330002"
   id="svg2"
   inkscape:version="0.48.4 r9939"
   sodipodi:docname="logo.svg">
  <sodipodi:namedview
     pagecolor="#ffffff"
     bordercolor="#666666"
     borderopacity="1"
     objecttolerance="10"
     gridtolerance="10"
     guidetolerance="10"
     inkscape:pageopacity="0"
     inkscape:pageshadow="2"
     inkscape:window-width="1301"
     inkscape:window-height="744"
     id="namedview2994"
     showgrid="false"
     inkscape:zoom="4.5584216"
     inkscape:cx="95.160201"
     inkscape:cy="-6.0210261"
     inkscape:window-x="1985"
     inkscape:window-y="189"
     inkscape:window-maximized="1"
     inkscape:current-layer="layer1" />
  <defs
     id="defs4" />
  <metadata
     id="metadata7">
    <rdf:RDF>
      <cc:Work
         rdf:about="">
        <dc:format>image/svg+xml</dc:format>
        <dc:type
           rdf:resource="http://purl.org/dc/dcmitype/StillImage" />
        <dc:title></dc:title>
      </cc:Work>
    </rdf:RDF>
  </metadata>
  <g
     transform="translate(-20.219628,-38.769185)"
     id="layer1"
     style="fill:#44aa00;fill-opacity:1">
    <text
       x="130.07883"
       y="248.60356"
       id="text3759"
       xml:space="preserve"
       style="font-size:144px;font-style:normal;font-variant:normal;font-weight:normal;font-stretch:normal;text-align:start;line-height:125%;letter-spacing:0px;word-spacing:0px;writing-mode:lr-tb;text-anchor:start;fill:#44aa00;fill-opacity:1;stroke:none;font-family:NanumBarunGothic;-inkscape-font-specification:NanumBarunGothic"
       sodipodi:linespacing="125%"><tspan
         x="130.07883"
         y="248.60356"
         id="tspan3763"
         style="fill:#44aa00;fill-opacity:1" /></text>
    <g
       inkscape:groupmode="layer"
       id="layer2"
       inkscape:label="old">
      <path
         d="m 5.8154008,134.52995 10.8186402,0 0,-0.16824 c -10e-6,-2.27124 -0.45516,-3.98169 -1.36546,-5.13136 -0.88697,-1.17767 -2.10072,-1.76651 -3.64122,-1.76653 -0.72359,2e-5 -1.41215,0.16826 -2.0657002,0.50472 -0.63022,0.30846 -1.20208,0.75711 -1.71558,1.34593 -0.51351,0.58886 -0.94532,1.31791 -1.29544,2.18714 -0.35012,0.84122 -0.5952,1.78057 -0.73524,2.81804 l 0,0.2103 m 5.8819802,-9.80005 c 2.56752,2e-5 4.56319,0.92534 5.98702,2.77598 1.42379,1.85067 2.1357,4.52851 2.13572,8.03352 l 0,1.72448 -14.0397302,0 0,0.37854 c 0.0467,2.69187 0.65354,4.72478 1.82061,6.09875 1.16705,1.37397 2.7309102,2.06096 4.6915802,2.06096 1.027,0 2.04234,-0.18226 3.04603,-0.54679 1.027,-0.36452 2.07735,-0.99542 3.15106,-1.89271 0.25674,-0.25236 0.38511,-0.19628 0.38513,0.16824 l 0,2.90216 c -0.98035,0.89729 -2.04237,1.50015 -3.18607,1.8086 -1.14374,0.33648 -2.41583,0.50472 -3.81629,0.50472 -1.37714,0 -2.6375602,-0.26638 -3.7812802,-0.79915 -1.14372,-0.53276 -2.12405,-1.30387 -2.94099,-2.31332 -0.81694,-1.00944 -1.45882,-2.24321 -1.92565,-3.70131 -0.44348,-1.48612 -0.66522,-3.18255 -0.66522,-5.0893 0,-1.8226 0.22174,-3.47697 0.66522,-4.96312 0.44348,-1.48611 1.06203,-2.76194 1.85563,-3.82749 0.81694,-1.06551 1.7856,-1.87867 2.90598,-2.4395 1.12037,-0.58882 2.3574502,-0.88324 3.7112502,-0.88326"
         style="font-size:37.54321289px;font-style:normal;font-variant:normal;font-weight:normal;font-stretch:normal;text-align:start;line-height:125%;letter-spacing:0px;word-spacing:0px;writing-mode:lr-tb;text-anchor:start;fill:#44aa00;fill-opacity:1;stroke:#44aa00;stroke-width:1.0221442;stroke-linecap:round;stroke-linejoin:round;stroke-miterlimit:4;stroke-opacity:1;font-family:NanumBarunGothic;-inkscape-font-specification:NanumBarunGothic"
         id="path3769"
         inkscape:connector-curvature="0" />
      <path
         d="m 39.307471,134.65614 0,13.58549 -3.01102,0 0,-13.66961 c -10e-6,-2.35537 -0.2801,-4.10788 -0.84028,-5.25755 -0.5602,-1.14963 -1.59888,-1.72445 -3.11605,-1.72447 -0.74693,2e-5 -1.48217,0.21032 -2.20574,0.6309 -0.70025,0.39258 -1.33046,0.95339 -1.89064,1.68242 -0.53685,0.70102 -0.98034,1.54223 -1.33045,2.52362 -0.32678,0.95338 -0.49017,2.00489 -0.49016,3.15452 l 0,12.66017 -2.97601,0 0,-22.96495 3.01102,0 0.14005,3.32277 0.035,0 c 0.28008,-0.58883 0.64187,-1.12159 1.08536,-1.5983 0.46682,-0.47666 0.96865,-0.88324 1.50551,-1.21975 0.53684,-0.33646 1.09703,-0.58882 1.68056,-0.75708 0.60687,-0.19626 1.20207,-0.2944 1.78561,-0.29442 2.42747,2e-5 4.13137,0.85524 5.11172,2.56568 1.00365,1.68243 1.50549,4.13594 1.50551,7.36056"
         style="font-size:37.54321289px;font-style:normal;font-variant:normal;font-weight:normal;font-stretch:normal;text-align:start;line-height:125%;letter-spacing:0px;word-spacing:0px;writing-mode:lr-tb;text-anchor:start;fill:#44aa00;fill-opacity:1;stroke:#44aa00;stroke-width:1.0221442;stroke-linecap:round;stroke-linejoin:round;stroke-miterlimit:4;stroke-opacity:1;font-family:NanumBarunGothic;-inkscape-font-specification:NanumBarunGothic"
         id="path3771"
         inkscape:connector-curvature="0" />
      <path
         d="m 56.491155,125.27668 3.151062,0 -7.457514,22.96495 -2.765932,0 -7.45751,-22.96495 3.15106,0 5.67191,18.63273 5.706924,-18.63273"
         style="font-size:37.54321289px;font-style:normal;font-variant:normal;font-weight:normal;font-stretch:normal;text-align:start;line-height:125%;letter-spacing:0px;word-spacing:0px;writing-mode:lr-tb;text-anchor:start;fill:#44aa00;fill-opacity:1;stroke:#44aa00;stroke-width:1.0221442;stroke-linecap:round;stroke-linejoin:round;stroke-miterlimit:4;stroke-opacity:1;font-family:NanumBarunGothic;-inkscape-font-specification:NanumBarunGothic"
         id="path3773"
         inkscape:connector-curvature="0" />
      <path
         d="m 67.290858,124.6744 c 0,0 -0.532583,16.44152 0.751552,23.104 -2.592884,-0.0196 -2.836301,-0.078 -5.10764,-0.0366 0.464369,-4.27038 1.96409,-17.60812 1.310066,-23.06739 2.570111,-0.50557 3.046022,0 3.046022,0 m -3.676235,-7.3185 c -2e-6,-0.75706 0.198399,-1.38796 0.595201,-1.89271 0.420138,-0.5047 0.945315,-0.75706 1.575534,-0.75709 0.606863,3e-5 1.120366,0.25239 1.540518,0.75709 0.420134,0.50475 0.630206,1.13565 0.630215,1.89271 -9e-6,0.72907 -0.210081,1.34596 -0.630215,1.85066 -0.420152,0.47671 -0.933655,0.71505 -1.540518,0.71502 -0.630219,3e-5 -1.155396,-0.23831 -1.575534,-0.71502 -0.396802,-0.5047 -0.595203,-1.12159 -0.595201,-1.85066"
         style="font-size:37.54321289px;font-style:normal;font-variant:normal;font-weight:normal;font-stretch:normal;text-align:start;line-height:125%;letter-spacing:0px;word-spacing:0px;writing-mode:lr-tb;text-anchor:start;fill:#92681a;fill-opacity:1;stroke:#92681a;stroke-width:1.0221442;stroke-linecap:round;stroke-linejoin:round;stroke-miterlimit:4;stroke-opacity:1;font-family:NanumBarunGothic;-inkscape-font-specification:NanumBarunGothic"
         id="path3775"
         inkscape:connector-curvature="0"
         sodipodi:nodetypes="cccccccccccccc" />
      <path
         d="m 81.399864,128.59945 c -0.326783,-0.22431 -0.665232,-0.37853 -1.015339,-0.46267 -0.350135,-0.11214 -0.758602,-0.16822 -1.225411,-0.16824 -0.606881,2e-5 -1.213753,0.18228 -1.820616,0.54679 -0.583539,0.3365 -1.108718,0.8272 -1.575536,1.47211 -0.443486,0.64494 -0.805278,1.41604 -1.085357,2.31332 -0.280108,0.8973 -0.420153,1.89272 -0.420143,2.98628 l 0,12.95459 -3.011019,0 0,-22.96495 3.046027,0 0.140045,3.32277 c 0.490161,-1.23375 1.202069,-2.18712 2.135724,-2.86011 0.933636,-0.67294 1.9023,-1.00942 2.905983,-1.00944 0.490151,2e-5 0.910294,0.0421 1.260419,0.12618 0.373449,0.0561 0.735232,0.1963 1.085366,0.4206 l 0,3.11247 c -9e-6,0.39258 -0.140063,0.46268 -0.420143,0.2103"
         style="font-size:37.54321289px;font-style:normal;font-variant:normal;font-weight:normal;font-stretch:normal;text-align:start;line-height:125%;letter-spacing:0px;word-spacing:0px;writing-mode:lr-tb;text-anchor:start;fill:#44aa00;fill-opacity:1;stroke:#44aa00;stroke-width:1.0221442;stroke-linecap:round;stroke-linejoin:round;stroke-miterlimit:4;stroke-opacity:1;font-family:NanumBarunGothic;-inkscape-font-specification:NanumBarunGothic"
         id="path3777"
         inkscape:connector-curvature="0" />
      <path
         d="m 91.08117,148.62017 c -1.54053,0 -2.87097,-0.32246 -3.99134,-0.96739 -1.09704,-0.61688 -2.01902,-1.47211 -2.76594,-2.56568 -0.72357,-1.09357 -1.26042,-2.35537 -1.61053,-3.78543 -0.35013,-1.45809 -0.52518,-3.0003 -0.52518,-4.62664 0,-1.71044 0.18673,-3.29471 0.56019,-4.75282 0.37345,-1.48611 0.93364,-2.74792 1.68056,-3.78543 0.74692,-1.06551 1.66889,-1.89269 2.76594,-2.48156 1.12036,-0.61686 2.4158,-0.9253 3.8863,-0.92532 1.47049,2e-5 2.75425,0.30846 3.85131,0.92532 1.12035,0.58887 2.05401,1.41605 2.80094,2.48156 0.7469,1.03751 1.30709,2.29932 1.68057,3.78543 0.37343,1.45811 0.56016,3.04238 0.56018,4.75282 -2e-5,1.62634 -0.17508,3.16855 -0.52518,4.62664 -0.35013,1.43006 -0.89865,2.69186 -1.64555,3.78543 -0.72359,1.09357 -1.64557,1.9488 -2.76593,2.56568 -1.09705,0.64493 -2.41583,0.96739 -3.95634,0.96739 m 0,-2.90216 c 1.86729,0 3.27943,-0.75709 4.23643,-2.27126 0.98032,-1.51417 1.47048,-3.77141 1.4705,-6.77172 -2e-5,-3.08441 -0.49018,-5.36969 -1.4705,-6.85583 -0.957,-1.48612 -2.36914,-2.22918 -4.23643,-2.2292 -1.8673,2e-5 -3.29111,0.74308 -4.27144,2.2292 -0.95699,1.48614 -1.43548,3.77142 -1.43548,6.85583 0,3.00031 0.47849,5.25755 1.43548,6.77172 0.98033,1.51417 2.40414,2.27126 4.27144,2.27126"
         style="font-size:37.54321289px;font-style:normal;font-variant:normal;font-weight:normal;font-stretch:normal;text-align:start;line-height:125%;letter-spacing:0px;word-spacing:0px;writing-mode:lr-tb;text-anchor:start;fill:#44aa00;fill-opacity:1;stroke:#44aa00;stroke-width:1.0221442;stroke-linecap:round;stroke-linejoin:round;stroke-miterlimit:4;stroke-opacity:1;font-family:NanumBarunGothic;-inkscape-font-specification:NanumBarunGothic"
         id="path3779"
         inkscape:connector-curvature="0" />
      <path
         d="m 105.72213,143.23645 c 0.70023,0 1.27208,0.26638 1.71557,0.79914 0.44348,0.53277 0.66522,1.20573 0.66523,2.0189 -1e-5,0.81317 -0.22175,1.48613 -0.66523,2.01889 -0.44349,0.53277 -1.01534,0.79915 -1.71557,0.79915 -0.70024,0 -1.27211,-0.26638 -1.71558,-0.79915 -0.44349,-0.53276 -0.66523,-1.20572 -0.66523,-2.01889 0,-0.81317 0.22174,-1.48613 0.66523,-2.0189 0.44347,-0.53276 1.01534,-0.79914 1.71558,-0.79914"
         style="font-size:37.54321289px;font-style:normal;font-variant:normal;font-weight:normal;font-stretch:normal;text-align:start;line-height:125%;letter-spacing:0px;word-spacing:0px;writing-mode:lr-tb;text-anchor:start;fill:#44aa00;fill-opacity:1;stroke:#44aa00;stroke-width:1.0221442;stroke-linecap:round;stroke-linejoin:round;stroke-miterlimit:4;stroke-opacity:1;font-family:NanumBarunGothic;-inkscape-font-specification:NanumBarunGothic"
         id="path3781"
         inkscape:connector-curvature="0" />
      <path
         d="m 124.34403,128.59945 c -0.32679,-0.22431 -0.66524,-0.37853 -1.01534,-0.46267 -0.35013,-0.11214 -0.7586,-0.16822 -1.22542,-0.16824 -0.60688,2e-5 -1.21375,0.18228 -1.82061,0.54679 -0.58353,0.3365 -1.10871,0.8272 -1.57553,1.47211 -0.44348,0.64494 -0.80528,1.41604 -1.08537,2.31332 -0.28009,0.8973 -0.42014,1.89272 -0.42014,2.98628 l 0,12.95459 -3.01101,0 0,-22.96495 3.04602,0 0.14005,3.32277 c 0.49017,-1.23375 1.20206,-2.18712 2.13572,-2.86011 0.93364,-0.67294 1.9023,-1.00942 2.90598,-1.00944 0.49015,2e-5 0.9103,0.0421 1.26043,0.12618 0.37344,0.0561 0.73523,0.1963 1.08537,0.4206 l 0,3.11247 c -2e-5,0.39258 -0.14007,0.46268 -0.42015,0.2103"
         style="font-size:37.54321289px;font-style:normal;font-variant:normal;font-weight:normal;font-stretch:normal;text-align:start;line-height:125%;letter-spacing:0px;word-spacing:0px;writing-mode:lr-tb;text-anchor:start;fill:#44aa00;fill-opacity:1;stroke:#44aa00;stroke-width:1.0221442;stroke-linecap:round;stroke-linejoin:round;stroke-miterlimit:4;stroke-opacity:1;font-family:NanumBarunGothic;-inkscape-font-specification:NanumBarunGothic"
         id="path3783"
         inkscape:connector-curvature="0" />
      <path
         d="m 128.49347,134.52995 10.81865,0 0,-0.16824 c -1e-5,-2.27124 -0.45516,-3.98169 -1.36546,-5.13136 -0.88698,-1.17767 -2.10072,-1.76651 -3.64122,-1.76653 -0.72359,2e-5 -1.41216,0.16826 -2.0657,0.50472 -0.63022,0.30846 -1.20209,0.75711 -1.71558,1.34593 -0.51351,0.58886 -0.94532,1.31791 -1.29544,2.18714 -0.35012,0.84122 -0.5952,1.78057 -0.73525,2.81804 l 0,0.2103 m 5.88199,-9.80005 c 2.56752,2e-5 4.56319,0.92534 5.98702,2.77598 1.42379,1.85067 2.1357,4.52851 2.13572,8.03352 l 0,1.72448 -14.03974,0 0,0.37854 c 0.0466,2.69187 0.65355,4.72478 1.82062,6.09875 1.16705,1.37397 2.73091,2.06096 4.69158,2.06096 1.027,0 2.04234,-0.18226 3.04603,-0.54679 1.027,-0.36452 2.07734,-0.99542 3.15106,-1.89271 0.25673,-0.25236 0.38511,-0.19628 0.38513,0.16824 l 0,2.90216 c -0.98035,0.89729 -2.04238,1.50015 -3.18607,1.8086 -1.14374,0.33648 -2.41584,0.50472 -3.81629,0.50472 -1.37714,0 -2.63757,-0.26638 -3.78128,-0.79915 -1.14373,-0.53276 -2.12406,-1.30387 -2.94099,-2.31332 -0.81694,-1.00944 -1.45882,-2.24321 -1.92565,-3.70131 -0.44348,-1.48612 -0.66523,-3.18255 -0.66523,-5.0893 0,-1.8226 0.22175,-3.47697 0.66523,-4.96312 0.44348,-1.48611 1.06202,-2.76194 1.85562,-3.82749 0.81695,-1.06551 1.7856,-1.87867 2.90599,-2.4395 1.12037,-0.58882 2.35745,-0.88324 3.71125,-0.88326"
         style="font-size:37.54321289px;font-style:normal;font-variant:normal;font-weight:normal;font-stretch:normal;text-align:start;line-height:125%;letter-spacing:0px;word-spacing:0px;writing-mode:lr-tb;text-anchor:start;fill:#44aa00;fill-opacity:1;stroke:#44aa00;stroke-width:1.0221442;stroke-linecap:round;stroke-linejoin:round;stroke-miterlimit:4;stroke-opacity:1;font-family:NanumBarunGothic;-inkscape-font-specification:NanumBarunGothic"
         id="path3785"
         inkscape:connector-curvature="0" />
      <path
         d="m 161.95053,134.65614 0,13.58549 -2.976,0 0,-13.66961 c -2e-5,-2.35537 -0.29178,-4.10788 -0.87529,-5.25755 -0.56021,-1.14963 -1.59889,-1.72445 -3.11606,-1.72447 -0.77026,2e-5 -1.50551,0.21032 -2.20574,0.6309 -0.70024,0.39258 -1.31879,0.95339 -1.85562,1.68242 -0.53686,0.70102 -0.96867,1.54223 -1.29544,2.52362 -0.32678,0.95338 -0.49017,2.00489 -0.49016,3.15452 l 0,12.66017 -3.01102,0 0,-34.19506 3.01102,0 0,14.80524 0.035,0 c 0.60686,-1.31787 1.47049,-2.32732 2.59088,-3.02835 1.12036,-0.72902 2.31076,-1.09354 3.5712,-1.09356 2.42747,2e-5 4.13138,0.85524 5.11172,2.56568 1.00365,1.68243 1.50549,4.13594 1.50551,7.36056"
         style="font-size:37.54321289px;font-style:normal;font-variant:normal;font-weight:normal;font-stretch:normal;text-align:start;line-height:125%;letter-spacing:0px;word-spacing:0px;writing-mode:lr-tb;text-anchor:start;fill:#44aa00;fill-opacity:1;stroke:#44aa00;stroke-width:1.0221442;stroke-linecap:round;stroke-linejoin:round;stroke-miterlimit:4;stroke-opacity:1;font-family:NanumBarunGothic;-inkscape-font-specification:NanumBarunGothic"
         id="path3787"
         inkscape:connector-curvature="0" />
      <path
         d="m 177.9088,138.90423 0,-3.02834 -5.0767,0.75708 c -1.30711,0.22433 -2.36914,0.7571 -3.18608,1.5983 -0.81695,0.81317 -1.22541,2.00488 -1.22541,3.57512 0,1.26182 0.35011,2.2292 1.05035,2.90217 0.72357,0.67296 1.64555,1.00945 2.76593,1.00945 0.74691,0 1.45882,-0.19628 2.13573,-0.58885 0.70022,-0.39256 1.30709,-0.89728 1.8206,-1.51417 0.53684,-0.64492 0.95698,-1.37397 1.26043,-2.18714 0.30343,-0.81316 0.45515,-1.65437 0.45515,-2.52362 m -10.32848,-8.70649 c -0.1167,0.14022 -0.22174,0.1963 -0.3151,0.16824 -0.0934,-0.0561 -0.14005,-0.19626 -0.14005,-0.4206 l 0,-3.07041 c 0.98033,-0.7851 2.07736,-1.40199 3.29111,-1.85065 1.21373,-0.44862 2.46248,-0.67295 3.74627,-0.67297 2.28742,2e-5 3.95632,0.63093 5.00668,1.89272 1.07369,1.26183 1.61053,3.3368 1.61055,6.22493 l 0,15.77263 -2.90598,0 -0.14005,-3.32277 -0.0351,0 c -0.30345,0.61688 -0.68858,1.16367 -1.15539,1.64035 -0.44349,0.47669 -0.94533,0.86925 -1.50551,1.17769 -0.53685,0.33648 -1.10871,0.58884 -1.71558,0.75709 -0.58354,0.16824 -1.16707,0.25236 -1.75059,0.25236 -0.93365,0.028 -1.79727,-0.0981 -2.59087,-0.37854 -0.77026,-0.28041 -1.43548,-0.70101 -1.99567,-1.26181 -0.56019,-0.56081 -0.99201,-1.26181 -1.29544,-2.10302 -0.30343,-0.8412 -0.45515,-1.80859 -0.45515,-2.90216 0,-2.13105 0.54851,-3.89759 1.64555,-5.29961 1.09704,-1.43004 2.73092,-2.34134 4.90165,-2.73392 l 6.02203,-1.05151 0,-0.37854 c -1e-5,-1.00943 -0.0817,-1.85064 -0.24508,-2.52362 -0.1634,-0.67295 -0.40848,-1.19169 -0.73525,-1.55623 -0.32678,-0.39255 -0.74692,-0.65893 -1.26042,-0.79915 -0.49018,-0.16822 -1.07371,-0.25234 -1.75059,-0.25236 -1.12039,2e-5 -2.18241,0.22434 -3.18608,0.67296 -0.98033,0.44867 -1.99567,1.12163 -3.04603,2.0189"
         style="font-size:37.54321289px;font-style:normal;font-variant:normal;font-weight:normal;font-stretch:normal;text-align:start;line-height:125%;letter-spacing:0px;word-spacing:0px;writing-mode:lr-tb;text-anchor:start;fill:#44aa00;fill-opacity:1;stroke:#44aa00;stroke-width:1.0221442;stroke-linecap:round;stroke-linejoin:round;stroke-miterlimit:4;stroke-opacity:1;font-family:NanumBarunGothic;-inkscape-font-specification:NanumBarunGothic"
         id="path3789"
         inkscape:connector-curvature="0" />
      <path
         d="m 188.79967,135.5394 0,3.23865 c 0,1.03749 0.12838,1.97684 0.38513,2.81804 0.28009,0.84121 0.65355,1.57026 1.12038,2.18714 0.46682,0.58885 1.027,1.05151 1.68057,1.38799 0.65354,0.30845 1.35378,0.46267 2.1007,0.46266 1.72724,1e-5 3.05769,-0.81316 3.99135,-2.43949 0.93363,-1.62633 1.40046,-3.96769 1.40047,-7.02408 -1e-5,-2.69185 -0.45517,-4.79486 -1.36546,-6.30905 -0.88698,-1.51416 -2.10072,-2.27124 -3.64123,-2.27126 -0.79361,2e-5 -1.54053,0.22434 -2.24075,0.67296 -0.67691,0.42063 -1.27211,0.99545 -1.78561,1.72448 -0.51351,0.72906 -0.92198,1.58429 -1.22541,2.56568 -0.2801,0.95338 -0.42014,1.94881 -0.42014,2.98628 m 5.95201,-10.8095 c 1.35378,2e-5 2.52084,0.28042 3.50118,0.8412 1.00365,0.56083 1.8206,1.34595 2.45083,2.35538 0.63018,1.00947 1.09701,2.2152 1.40046,3.61719 0.30342,1.40203 0.45514,2.93022 0.45516,4.58458 -2e-5,1.79458 -0.16341,3.46297 -0.49017,5.00518 -0.32679,1.51418 -0.82863,2.83206 -1.50551,3.95367 -0.6769,1.09357 -1.54053,1.9488 -2.59086,2.56568 -1.02704,0.64493 -2.25245,0.96739 -3.67624,0.96739 -1.2371,0 -2.27578,-0.29443 -3.11606,-0.88327 -0.84028,-0.5608 -1.56387,-1.33191 -2.17073,-2.31332 l -0.035,0 -0.10504,2.81805 -3.15106,0 0,-34.19506 3.01102,0 0,14.72112 0.07,0 c 0.60688,-1.26179 1.41214,-2.2432 2.41583,-2.94423 1.02699,-0.72902 2.20573,-1.09354 3.53618,-1.09356"
         style="font-size:37.54321289px;font-style:normal;font-variant:normal;font-weight:normal;font-stretch:normal;text-align:start;line-height:125%;letter-spacing:0px;word-spacing:0px;writing-mode:lr-tb;text-anchor:start;fill:#44aa00;fill-opacity:1;stroke:#44aa00;stroke-width:1.0221442;stroke-linecap:round;stroke-linejoin:round;stroke-miterlimit:4;stroke-opacity:1;font-family:NanumBarunGothic;-inkscape-font-specification:NanumBarunGothic"
         id="path3791"
         inkscape:connector-curvature="0" />
      <path
         d="m 30.749696,62.767756 10.818644,0 0,-0.16824 c -10e-6,-2.27124 -0.45516,-3.98169 -1.36546,-5.13136 -0.88697,-1.17767 -2.10072,-1.76651 -3.64122,-1.76653 -0.723594,2e-5 -1.412154,0.16826 -2.065704,0.50472 -0.63022,0.30846 -1.20208,0.75711 -1.71558,1.34593 -0.51351,0.58886 -0.94532,1.31791 -1.29544,2.18714 -0.35012,0.84122 -0.5952,1.78057 -0.73524,2.81804 l 0,0.2103 m 5.881984,-9.80005 c 2.56752,2e-5 4.56319,0.92534 5.98702,2.77598 1.42379,1.85067 2.1357,4.52851 2.13572,8.03352 l 0,1.72448 -14.039734,0 0,0.37854 c 0.0467,2.69187 0.65354,4.72478 1.82061,6.09875 1.16705,1.37397 2.73091,2.06096 4.691584,2.06096 1.027,0 2.04234,-0.18226 3.04603,-0.54679 1.027,-0.36452 2.07735,-0.99542 3.15106,-1.89271 0.25674,-0.25236 0.38511,-0.19628 0.38513,0.16824 l 0,2.90216 c -0.98035,0.89729 -2.04237,1.50015 -3.18607,1.8086 -1.14374,0.33648 -2.41583,0.50472 -3.81629,0.50472 -1.377144,0 -2.637564,-0.26638 -3.781284,-0.79915 -1.14372,-0.53276 -2.12405,-1.30387 -2.94099,-2.31332 -0.81694,-1.00944 -1.45882,-2.24321 -1.92565,-3.70131 -0.44348,-1.48612 -0.66522,-3.18255 -0.66522,-5.0893 0,-1.8226 0.22174,-3.47697 0.66522,-4.96312 0.44348,-1.48611 1.06203,-2.76194 1.85563,-3.82749 0.81694,-1.06551 1.7856,-1.87867 2.90598,-2.4395 1.12037,-0.58882 2.35745,-0.88324 3.711254,-0.88326"
         style="font-size:37.54321289px;font-style:normal;font-variant:normal;font-weight:normal;font-stretch:normal;text-align:start;line-height:125%;letter-spacing:0px;word-spacing:0px;writing-mode:lr-tb;text-anchor:start;fill:#44aa00;fill-opacity:1;stroke:#44aa00;stroke-width:1.0221442;stroke-linecap:round;stroke-linejoin:round;stroke-miterlimit:4;stroke-opacity:1;font-family:NanumBarunGothic;-inkscape-font-specification:NanumBarunGothic"
         id="path3769-3"
         inkscape:connector-curvature="0" />
      <path
         d="m 64.24177,62.893946 0,13.58549 -3.01102,0 0,-13.66961 c -1e-5,-2.35537 -0.2801,-4.10788 -0.84028,-5.25755 -0.5602,-1.14963 -1.59888,-1.72445 -3.11605,-1.72447 -0.74693,2e-5 -1.48217,0.21032 -2.20574,0.6309 -0.70025,0.39258 -1.33046,0.95339 -1.89064,1.68242 -0.53685,0.70102 -0.98034,1.54223 -1.33045,2.52362 -0.32678,0.95338 -0.49017,2.00489 -0.49016,3.15452 l 0,12.66017 -2.97601,0 0,-22.96495 3.01102,0 0.14005,3.32277 0.035,0 c 0.28008,-0.58883 0.64187,-1.12159 1.08536,-1.5983 0.46682,-0.47666 0.96865,-0.88324 1.50551,-1.21975 0.53684,-0.33646 1.09703,-0.58882 1.68056,-0.75708 0.60687,-0.19626 1.20207,-0.2944 1.78561,-0.29442 2.42747,2e-5 4.13137,0.85524 5.11172,2.56568 1.00365,1.68243 1.50549,4.13594 1.50551,7.36056"
         style="font-size:37.54321289px;font-style:normal;font-variant:normal;font-weight:normal;font-stretch:normal;text-align:start;line-height:125%;letter-spacing:0px;word-spacing:0px;writing-mode:lr-tb;text-anchor:start;fill:#44aa00;fill-opacity:1;stroke:#44aa00;stroke-width:1.0221442;stroke-linecap:round;stroke-linejoin:round;stroke-miterlimit:4;stroke-opacity:1;font-family:NanumBarunGothic;-inkscape-font-specification:NanumBarunGothic"
         id="path3771-6"
         inkscape:connector-curvature="0" />
      <path
         d="m 81.42545,53.514486 3.15106,0 -7.45751,22.96495 -2.76593,0 -7.45751,-22.96495 3.15106,0 5.67191,18.63273 5.70692,-18.63273"
         style="font-size:37.54321289px;font-style:normal;font-variant:normal;font-weight:normal;font-stretch:normal;text-align:start;line-height:125%;letter-spacing:0px;word-spacing:0px;writing-mode:lr-tb;text-anchor:start;fill:#44aa00;fill-opacity:1;stroke:#44aa00;stroke-width:1.0221442;stroke-linecap:round;stroke-linejoin:round;stroke-miterlimit:4;stroke-opacity:1;font-family:NanumBarunGothic;-inkscape-font-specification:NanumBarunGothic"
         id="path3773-7"
         inkscape:connector-curvature="0" />
      <path
         d="m 106.33416,56.837256 c -0.32678,-0.22431 -0.66523,-0.37853 -1.01534,-0.46267 -0.35013,-0.11214 -0.7586,-0.16822 -1.22541,-0.16824 -0.60688,2e-5 -1.21375,0.18228 -1.82062,0.54679 -0.58354,0.3365 -1.10871,0.8272 -1.57553,1.47211 -0.44349,0.64494 -0.80528,1.41604 -1.08536,2.31332 -0.28011,0.8973 -0.42015,1.89272 -0.42014,2.98628 l 0,12.95459 -3.01102,0 0,-22.96495 3.04603,0 0.14004,3.32277 c 0.49016,-1.23375 1.20207,-2.18712 2.13572,-2.86011 0.93364,-0.67294 1.9023,-1.00942 2.90599,-1.00944 0.49015,2e-5 0.91029,0.0421 1.26042,0.12618 0.37345,0.0561 0.73523,0.1963 1.08536,0.4206 l 0,3.11247 c -1e-5,0.39258 -0.14006,0.46268 -0.42014,0.2103"
         style="font-size:37.54321289px;font-style:normal;font-variant:normal;font-weight:normal;font-stretch:normal;text-align:start;line-height:125%;letter-spacing:0px;word-spacing:0px;writing-mode:lr-tb;text-anchor:start;fill:#44aa00;fill-opacity:1;stroke:#44aa00;stroke-width:1.0221442;stroke-linecap:round;stroke-linejoin:round;stroke-miterlimit:4;stroke-opacity:1;font-family:NanumBarunGothic;-inkscape-font-specification:NanumBarunGothic"
         id="path3777-5"
         inkscape:connector-curvature="0" />
      <path
         d="m 116.01547,76.857976 c -1.54053,0 -2.87097,-0.32246 -3.99134,-0.96739 -1.09704,-0.61688 -2.01902,-1.47211 -2.76594,-2.56568 -0.72357,-1.09357 -1.26042,-2.35537 -1.61053,-3.78543 -0.35013,-1.45809 -0.52518,-3.0003 -0.52518,-4.62664 0,-1.71044 0.18673,-3.29471 0.56019,-4.75282 0.37345,-1.48611 0.93364,-2.74792 1.68056,-3.78543 0.74692,-1.06551 1.66889,-1.89269 2.76594,-2.48156 1.12036,-0.61686 2.4158,-0.9253 3.8863,-0.92532 1.47049,2e-5 2.75425,0.30846 3.85131,0.92532 1.12035,0.58887 2.05401,1.41605 2.80094,2.48156 0.7469,1.03751 1.30709,2.29932 1.68057,3.78543 0.37343,1.45811 0.56016,3.04238 0.56018,4.75282 -2e-5,1.62634 -0.17508,3.16855 -0.52518,4.62664 -0.35013,1.43006 -0.89865,2.69186 -1.64555,3.78543 -0.72359,1.09357 -1.64557,1.9488 -2.76593,2.56568 -1.09705,0.64493 -2.41583,0.96739 -3.95634,0.96739 m 0,-2.90216 c 1.86729,0 3.27943,-0.75709 4.23643,-2.27126 0.98032,-1.51417 1.47048,-3.77141 1.4705,-6.77172 -2e-5,-3.08441 -0.49018,-5.36969 -1.4705,-6.85583 -0.957,-1.48612 -2.36914,-2.22918 -4.23643,-2.2292 -1.8673,2e-5 -3.29111,0.74308 -4.27144,2.2292 -0.95699,1.48614 -1.43548,3.77142 -1.43548,6.85583 0,3.00031 0.47849,5.25755 1.43548,6.77172 0.98033,1.51417 2.40414,2.27126 4.27144,2.27126"
         style="font-size:37.54321289px;font-style:normal;font-variant:normal;font-weight:normal;font-stretch:normal;text-align:start;line-height:125%;letter-spacing:0px;word-spacing:0px;writing-mode:lr-tb;text-anchor:start;fill:#44aa00;fill-opacity:1;stroke:#44aa00;stroke-width:1.0221442;stroke-linecap:round;stroke-linejoin:round;stroke-miterlimit:4;stroke-opacity:1;font-family:NanumBarunGothic;-inkscape-font-specification:NanumBarunGothic"
         id="path3779-3"
         inkscape:connector-curvature="0" />
      <path
         d="m 130.65643,71.474256 c 0.70023,0 1.27208,0.26638 1.71557,0.79914 0.44348,0.53277 0.66522,1.20573 0.66523,2.0189 -1e-5,0.81317 -0.22175,1.48613 -0.66523,2.01889 -0.44349,0.53277 -1.01534,0.79915 -1.71557,0.79915 -0.70024,0 -1.27211,-0.26638 -1.71558,-0.79915 -0.44349,-0.53276 -0.66523,-1.20572 -0.66523,-2.01889 0,-0.81317 0.22174,-1.48613 0.66523,-2.0189 0.44347,-0.53276 1.01534,-0.79914 1.71558,-0.79914"
         style="font-size:37.54321289px;font-style:normal;font-variant:normal;font-weight:normal;font-stretch:normal;text-align:start;line-height:125%;letter-spacing:0px;word-spacing:0px;writing-mode:lr-tb;text-anchor:start;fill:#44aa00;fill-opacity:1;stroke:#44aa00;stroke-width:1.0221442;stroke-linecap:round;stroke-linejoin:round;stroke-miterlimit:4;stroke-opacity:1;font-family:NanumBarunGothic;-inkscape-font-specification:NanumBarunGothic"
         id="path3781-5"
         inkscape:connector-curvature="0" />
      <path
         d="m 149.27833,56.837256 c -0.32679,-0.22431 -0.66524,-0.37853 -1.01534,-0.46267 -0.35013,-0.11214 -0.7586,-0.16822 -1.22542,-0.16824 -0.60688,2e-5 -1.21375,0.18228 -1.82061,0.54679 -0.58353,0.3365 -1.10871,0.8272 -1.57553,1.47211 -0.44348,0.64494 -0.80528,1.41604 -1.08537,2.31332 -0.28009,0.8973 -0.42014,1.89272 -0.42014,2.98628 l 0,12.95459 -3.01101,0 0,-22.96495 3.04602,0 0.14005,3.32277 c 0.49017,-1.23375 1.20206,-2.18712 2.13572,-2.86011 0.93364,-0.67294 1.9023,-1.00942 2.90598,-1.00944 0.49015,2e-5 0.9103,0.0421 1.26043,0.12618 0.37344,0.0561 0.73523,0.1963 1.08537,0.4206 l 0,3.11247 c -2e-5,0.39258 -0.14007,0.46268 -0.42015,0.2103"
         style="font-size:37.54321289px;font-style:normal;font-variant:normal;font-weight:normal;font-stretch:normal;text-align:start;line-height:125%;letter-spacing:0px;word-spacing:0px;writing-mode:lr-tb;text-anchor:start;fill:#44aa00;fill-opacity:1;stroke:#44aa00;stroke-width:1.0221442;stroke-linecap:round;stroke-linejoin:round;stroke-miterlimit:4;stroke-opacity:1;font-family:NanumBarunGothic;-inkscape-font-specification:NanumBarunGothic"
         id="path3783-6"
         inkscape:connector-curvature="0" />
      <path
         d="m 153.42777,62.767756 10.81865,0 0,-0.16824 c -1e-5,-2.27124 -0.45516,-3.98169 -1.36546,-5.13136 -0.88698,-1.17767 -2.10072,-1.76651 -3.64122,-1.76653 -0.72359,2e-5 -1.41216,0.16826 -2.0657,0.50472 -0.63022,0.30846 -1.20209,0.75711 -1.71558,1.34593 -0.51351,0.58886 -0.94532,1.31791 -1.29544,2.18714 -0.35012,0.84122 -0.5952,1.78057 -0.73525,2.81804 l 0,0.2103 m 5.88199,-9.80005 c 2.56752,2e-5 4.56319,0.92534 5.98702,2.77598 1.42379,1.85067 2.1357,4.52851 2.13572,8.03352 l 0,1.72448 -14.03974,0 0,0.37854 c 0.0466,2.69187 0.65355,4.72478 1.82062,6.09875 1.16705,1.37397 2.73091,2.06096 4.69158,2.06096 1.027,0 2.04234,-0.18226 3.04603,-0.54679 1.027,-0.36452 2.07734,-0.99542 3.15106,-1.89271 0.25673,-0.25236 0.38511,-0.19628 0.38513,0.16824 l 0,2.90216 c -0.98035,0.89729 -2.04238,1.50015 -3.18607,1.8086 -1.14374,0.33648 -2.41584,0.50472 -3.81629,0.50472 -1.37714,0 -2.63757,-0.26638 -3.78128,-0.79915 -1.14373,-0.53276 -2.12406,-1.30387 -2.94099,-2.31332 -0.81694,-1.00944 -1.45882,-2.24321 -1.92565,-3.70131 -0.44348,-1.48612 -0.66523,-3.18255 -0.66523,-5.0893 0,-1.8226 0.22175,-3.47697 0.66523,-4.96312 0.44348,-1.48611 1.06202,-2.76194 1.85562,-3.82749 0.81695,-1.06551 1.7856,-1.87867 2.90599,-2.4395 1.12037,-0.58882 2.35745,-0.88324 3.71125,-0.88326"
         style="font-size:37.54321289px;font-style:normal;font-variant:normal;font-weight:normal;font-stretch:normal;text-align:start;line-height:125%;letter-spacing:0px;word-spacing:0px;writing-mode:lr-tb;text-anchor:start;fill:#44aa00;fill-opacity:1;stroke:#44aa00;stroke-width:1.0221442;stroke-linecap:round;stroke-linejoin:round;stroke-miterlimit:4;stroke-opacity:1;font-family:NanumBarunGothic;-inkscape-font-specification:NanumBarunGothic"
         id="path3785-2"
         inkscape:connector-curvature="0" />
      <path
         d="m 186.88483,62.893946 0,13.58549 -2.976,0 0,-13.66961 c -2e-5,-2.35537 -0.29178,-4.10788 -0.87529,-5.25755 -0.56021,-1.14963 -1.59889,-1.72445 -3.11606,-1.72447 -0.77026,2e-5 -1.50551,0.21032 -2.20574,0.6309 -0.70024,0.39258 -1.31879,0.95339 -1.85562,1.68242 -0.53686,0.70102 -0.96867,1.54223 -1.29544,2.52362 -0.32678,0.95338 -0.49017,2.00489 -0.49016,3.15452 l 0,12.66017 -3.01102,0 0,-34.19506 3.01102,0 0,14.80524 0.035,0 c 0.60686,-1.31787 1.47049,-2.32732 2.59088,-3.02835 1.12036,-0.72902 2.31076,-1.09354 3.5712,-1.09356 2.42747,2e-5 4.13138,0.85524 5.11172,2.56568 1.00365,1.68243 1.50549,4.13594 1.50551,7.36056"
         style="font-size:37.54321289px;font-style:normal;font-variant:normal;font-weight:normal;font-stretch:normal;text-align:start;line-height:125%;letter-spacing:0px;word-spacing:0px;writing-mode:lr-tb;text-anchor:start;fill:#44aa00;fill-opacity:1;stroke:#44aa00;stroke-width:1.0221442;stroke-linecap:round;stroke-linejoin:round;stroke-miterlimit:4;stroke-opacity:1;font-family:NanumBarunGothic;-inkscape-font-specification:NanumBarunGothic"
         id="path3787-9"
         inkscape:connector-curvature="0" />
      <path
         d="m 202.8431,67.142036 0,-3.02834 -5.0767,0.75708 c -1.30711,0.22433 -2.36914,0.7571 -3.18608,1.5983 -0.81695,0.81317 -1.22541,2.00488 -1.22541,3.57512 0,1.26182 0.35011,2.2292 1.05035,2.90217 0.72357,0.67296 1.64555,1.00945 2.76593,1.00945 0.74691,0 1.45882,-0.19628 2.13573,-0.58885 0.70022,-0.39256 1.30709,-0.89728 1.8206,-1.51417 0.53684,-0.64492 0.95698,-1.37397 1.26043,-2.18714 0.30343,-0.81316 0.45515,-1.65437 0.45515,-2.52362 m -10.32848,-8.70649 c -0.1167,0.14022 -0.22174,0.1963 -0.3151,0.16824 -0.0934,-0.0561 -0.14005,-0.19626 -0.14005,-0.4206 l 0,-3.07041 c 0.98033,-0.7851 2.07736,-1.40199 3.29111,-1.85065 1.21373,-0.44862 2.46248,-0.67295 3.74627,-0.67297 2.28742,2e-5 3.95632,0.63093 5.00668,1.89272 1.07369,1.26183 1.61053,3.3368 1.61055,6.22493 l 0,15.77263 -2.90598,0 -0.14005,-3.32277 -0.0351,0 c -0.30345,0.61688 -0.68858,1.16367 -1.15539,1.64035 -0.44349,0.47669 -0.94533,0.86925 -1.50551,1.17769 -0.53685,0.33648 -1.10871,0.58884 -1.71558,0.75709 -0.58354,0.16824 -1.16707,0.25236 -1.75059,0.25236 -0.93365,0.028 -1.79727,-0.0981 -2.59087,-0.37854 -0.77026,-0.28041 -1.43548,-0.70101 -1.99567,-1.26181 -0.56019,-0.56081 -0.99201,-1.26181 -1.29544,-2.10302 -0.30343,-0.8412 -0.45515,-1.80859 -0.45515,-2.90216 0,-2.13105 0.54851,-3.89759 1.64555,-5.29961 1.09704,-1.43004 2.73092,-2.34134 4.90165,-2.73392 l 6.02203,-1.05151 0,-0.37854 c -1e-5,-1.00943 -0.0817,-1.85064 -0.24508,-2.52362 -0.1634,-0.67295 -0.40848,-1.19169 -0.73525,-1.55623 -0.32678,-0.39255 -0.74692,-0.65893 -1.26042,-0.79915 -0.49018,-0.16822 -1.07371,-0.25234 -1.75059,-0.25236 -1.12039,2e-5 -2.18241,0.22434 -3.18608,0.67296 -0.98033,0.44867 -1.99567,1.12163 -3.04603,2.0189"
         style="font-size:37.54321289px;font-style:normal;font-variant:normal;font-weight:normal;font-stretch:normal;text-align:start;line-height:125%;letter-spacing:0px;word-spacing:0px;writing-mode:lr-tb;text-anchor:start;fill:#44aa00;fill-opacity:1;stroke:#44aa00;stroke-width:1.0221442;stroke-linecap:round;stroke-linejoin:round;stroke-miterlimit:4;stroke-opacity:1;font-family:NanumBarunGothic;-inkscape-font-specification:NanumBarunGothic"
         id="path3789-1"
         inkscape:connector-curvature="0" />
      <path
         d="m 213.73397,63.777206 0,3.23865 c 0,1.03749 0.12838,1.97684 0.38513,2.81804 0.28009,0.84121 0.65355,1.57026 1.12038,2.18714 0.46682,0.58885 1.027,1.05151 1.68057,1.38799 0.65354,0.30845 1.35378,0.46267 2.1007,0.46266 1.72724,1e-5 3.05769,-0.81316 3.99135,-2.43949 0.93363,-1.62633 1.40046,-3.96769 1.40047,-7.02408 -10e-6,-2.69185 -0.45517,-4.79486 -1.36546,-6.30905 -0.88698,-1.51416 -2.10072,-2.27124 -3.64123,-2.27126 -0.79361,2e-5 -1.54053,0.22434 -2.24075,0.67296 -0.67691,0.42063 -1.27211,0.99545 -1.78561,1.72448 -0.51351,0.72906 -0.92198,1.58429 -1.22541,2.56568 -0.2801,0.95338 -0.42014,1.94881 -0.42014,2.98628 m 5.95201,-10.8095 c 1.35378,2e-5 2.52084,0.28042 3.50118,0.8412 1.00365,0.56083 1.8206,1.34595 2.45083,2.35538 0.63018,1.00947 1.09701,2.2152 1.40046,3.61719 0.30342,1.40203 0.45514,2.93022 0.45516,4.58458 -2e-5,1.79458 -0.16341,3.46297 -0.49017,5.00518 -0.32679,1.51418 -0.82863,2.83206 -1.50551,3.95367 -0.6769,1.09357 -1.54053,1.9488 -2.59086,2.56568 -1.02704,0.64493 -2.25245,0.96739 -3.67624,0.96739 -1.2371,0 -2.27578,-0.29443 -3.11606,-0.88327 -0.84028,-0.5608 -1.56387,-1.33191 -2.17073,-2.31332 l -0.035,0 -0.10504,2.81805 -3.15106,0 0,-34.19506 3.01102,0 0,14.72112 0.07,0 c 0.60688,-1.26179 1.41214,-2.2432 2.41583,-2.94423 1.02699,-0.72902 2.20573,-1.09354 3.53618,-1.09356"
         style="font-size:37.54321289px;font-style:normal;font-variant:normal;font-weight:normal;font-stretch:normal;text-align:start;line-height:125%;letter-spacing:0px;word-spacing:0px;writing-mode:lr-tb;text-anchor:start;fill:#44aa00;fill-opacity:1;stroke:#44aa00;stroke-width:1.0221442;stroke-linecap:round;stroke-linejoin:round;stroke-miterlimit:4;stroke-opacity:1;font-family:NanumBarunGothic;-inkscape-font-specification:NanumBarunGothic"
         id="path3791-2"
         inkscape:connector-curvature="0" />
    </g>
    <g
       transform="matrix(0.73273609,0,0,0.88024972,4.5864291,227.08907)"
       style="font-size:37.54321289px;font-style:normal;font-variant:normal;font-weight:normal;font-stretch:normal;text-align:start;line-height:125%;letter-spacing:0px;word-spacing:0px;writing-mode:lr-tb;text-anchor:start;fill:#44aa00;fill-opacity:1;stroke:none;font-family:NanumBarunGothic;-inkscape-font-specification:NanumBarunGothic"
       id="text3765">
      <text
         xml:space="preserve"
         style="font-size:56px;font-style:normal;font-variant:normal;font-weight:500;font-stretch:normal;text-align:start;line-height:125%;letter-spacing:0px;word-spacing:0px;writing-mode:lr-tb;text-anchor:start;fill:#000000;fill-opacity:1;stroke:none;font-family:Kinnari;-inkscape-font-specification:Kinnari Medium"
         x="-7.1741772"
         y="-45.037846"
         id="text3172"
         sodipodi:linespacing="125%"
         transform="scale(1.0723016,0.93257345)"><tspan
           sodipodi:role="line"
           id="tspan3174"
           x="-7.1741772"
           y="-45.037846"
           style="font-weight:bold;letter-spacing:-0.88000047px;-inkscape-font-specification:Kinnari Bold"
           dx="-5.5800004">en<tspan
   style="letter-spacing:-7.84000301px"
   id="tspan3198">v </tspan><tspan
   id="tspan3418"
   style="letter-spacing:-0.10000068px">ro</tspan><tspan
   style="letter-spacing:-0.03000003px"
   id="tspan3412">.rehab</tspan></tspan></text>
    </g>
    <g
       id="g3528"
       transform="translate(1.7063307,0.93072582)">
      <path
         sodipodi:nodetypes="ccccc"
         inkscape:connector-curvature="0"
         style="font-size:37.54321289px;font-style:normal;font-variant:normal;font-weight:normal;font-stretch:normal;text-align:start;line-height:125%;letter-spacing:0px;word-spacing:0px;writing-mode:lr-tb;text-anchor:start;fill:#92681a;fill-opacity:1;stroke:#92681a;stroke-width:1.22066581;stroke-linecap:round;stroke-linejoin:round;stroke-miterlimit:4;stroke-opacity:1;font-family:NanumBarunGothic;-inkscape-font-specification:NanumBarunGothic"
         d="m 73.177652,-31.287129 c 0,0 -0.69711,17.914199 0.983719,25.1734479 -3.39388,-0.02139 -3.712492,-0.08493 -6.685497,-0.03989 0.607822,-4.6528879 2.570839,-19.1852979 1.714772,-25.1335599 3.364077,-0.55086 3.987006,0 3.987006,0"
         id="path3496"
         transform="matrix(0.73273609,0,0,0.88024972,35.635671,80.728757)" />
      <g
         id="g3523">
        <path
           d="m 85.763643,45.285279 c 1.549539,0.02297 3.419625,1.554648 3.709781,3.002258 0.411054,2.050757 -1.025443,2.382792 -2.062256,2.343867 -1.547267,-0.05809 -2.294709,-1.055397 -3.166915,-2.034346 -0.872205,-0.978946 -3.295779,-2.188991 -3.295779,-2.188991 0,0 0.143,-0.210242 1.655746,-0.654282 1.574402,-0.462136 1.60987,-0.491481 3.159423,-0.468506 z"
           id="path3958-9-1-9-4"
           style="fill:#44aa00;fill-opacity:1;stroke:none;display:inline"
           inkscape:connector-curvature="0" />
        <path
           d="m 90.166243,43.395174 c -1.49182,0.02297 -3.292236,1.554648 -3.571581,3.002257 -0.395741,2.050758 0.987242,2.382793 1.985429,2.343868 1.489627,-0.05809 2.209223,-1.055397 3.04894,-2.034346 0.839708,-0.978946 3.172996,-2.188991 3.172996,-2.188991 0,0 -0.137673,-0.210242 -1.594065,-0.654283 -1.515752,-0.462135 -1.549891,-0.49148 -3.041719,-0.468505 z"
           id="path3958-9-1-9-4-8"
           style="fill:#44aa00;fill-opacity:1;stroke:none;display:inline"
           inkscape:connector-curvature="0" />
      </g>
    </g>
  </g>
</svg>
