<?xml version="1.0" encoding="UTF-8" standalone="no"?>
<!-- Created with Inkscape (http://www.inkscape.org/) -->

<svg
   xmlns:dc="http://purl.org/dc/elements/1.1/"
   xmlns:cc="http://creativecommons.org/ns#"
   xmlns:rdf="http://www.w3.org/1999/02/22-rdf-syntax-ns#"
   xmlns:svg="http://www.w3.org/2000/svg"
   xmlns="http://www.w3.org/2000/svg"
   xmlns:sodipodi="http://sodipodi.sourceforge.net/DTD/sodipodi-0.dtd"
   xmlns:inkscape="http://www.inkscape.org/namespaces/inkscape"
   width="33"
   height="50"
   id="svg2"
   version="1.1"
   inkscape:version="0.48.4 r9939"
   sodipodi:docname="logo.svg">
  <defs
     id="defs4" />
  <sodipodi:namedview
     id="base"
     pagecolor="#ffffff"
     bordercolor="#666666"
     borderopacity="1.0"
     inkscape:pageopacity="0.0"
     inkscape:pageshadow="2"
     inkscape:zoom="9.260436"
     inkscape:cx="36.019588"
     inkscape:cy="38.245724"
     inkscape:document-units="px"
     inkscape:current-layer="layer1"
     showgrid="false"
     showguides="false"
     inkscape:guide-bbox="true"
     inkscape:window-width="1855"
     inkscape:window-height="1056"
     inkscape:window-x="65"
     inkscape:window-y="24"
     inkscape:window-maximized="1"
     height="80px">
    <sodipodi:guide
       orientation="0,1"
       position="-8.4780972,499.437"
       id="guide3775" />
    <sodipodi:guide
       orientation="0,1"
       position="32.370917,599.6327"
       id="guide3777" />
    <sodipodi:guide
       orientation="0,1"
       position="87.863917,400.78278"
       id="guide3779" />
    <sodipodi:guide
       orientation="1,0"
       position="97.883486,806.18997"
       id="guide3781" />
    <inkscape:grid
       type="xygrid"
       id="grid3003"
       empspacing="5"
       visible="true"
       enabled="true"
       snapvisiblegridlinesonly="true" />
    <sodipodi:guide
       orientation="0,1"
       position="160,360"
       id="guide3007" />
  </sodipodi:namedview>
  <metadata
     id="metadata7">
    <rdf:RDF>
      <cc:Work
         rdf:about="">
        <dc:format>image/svg+xml</dc:format>
        <dc:type
           rdf:resource="http://purl.org/dc/dcmitype/StillImage" />
        <dc:title></dc:title>
      </cc:Work>
    </rdf:RDF>
  </metadata>
  <g
     inkscape:label="Layer 1"
     inkscape:groupmode="layer"
     id="layer1"
     transform="translate(0,-1002.3622)">
    <g
       id="g4575"
       transform="matrix(0.15543357,0,0,0.15543357,-3.0749774,997.40063)">
      <path
         transform="matrix(0.89933288,0,0,0.89933288,-131.35438,-332.34878)"
         sodipodi:open="true"
         sodipodi:end="12.207335"
         sodipodi:start="5.9269148"
         d="m 390.73037,490.3225 c 21.37886,57.44675 -7.85994,121.34753 -65.30668,142.72638 -57.44675,21.37886 -121.34753,-7.85994 -142.72639,-65.30668 -21.37886,-57.44675 7.85994,-121.34753 65.30669,-142.72639 57.33445,-21.33707 121.12342,7.74398 142.61895,65.01922"
         sodipodi:ry="110.986"
         sodipodi:rx="110.986"
         sodipodi:cy="529.03235"
         sodipodi:cx="286.71384"
         id="path2985"
         style="color:#000000;fill:#00a0ff;fill-opacity:1;stroke:none;stroke-width:2;marker:none;visibility:visible;display:inline;overflow:visible;enable-background:accumulate"
         sodipodi:type="arc" />
      <path
         transform="matrix(0.84726368,0,0,0.86114874,-116.20594,-311.90908)"
         sodipodi:open="true"
         sodipodi:end="12.207335"
         sodipodi:start="5.9269148"
         d="m 390.73037,490.3225 c 21.37886,57.44675 -7.85994,121.34753 -65.30668,142.72638 -57.44675,21.37886 -121.34753,-7.85994 -142.72639,-65.30668 -21.37886,-57.44675 7.85994,-121.34753 65.30669,-142.72639 57.33445,-21.33707 121.12342,7.74398 142.61895,65.01922"
         sodipodi:ry="110.986"
         sodipodi:rx="110.986"
         sodipodi:cy="529.03235"
         sodipodi:cx="286.71384"
         id="path2985-7"
         style="color:#000000;fill:#fdfaff;fill-opacity:1;stroke:none;stroke-width:1.75607431;marker:none;visibility:visible;display:inline;overflow:visible;enable-background:accumulate"
         sodipodi:type="arc" />
      <path
         transform="matrix(0.33351422,0,0,0.33897989,31.093138,-35.664785)"
         sodipodi:open="true"
         sodipodi:end="12.207335"
         sodipodi:start="5.9269148"
         d="m 390.73037,490.3225 c 21.37886,57.44675 -7.85994,121.34753 -65.30668,142.72638 -57.44675,21.37886 -121.34753,-7.85994 -142.72639,-65.30668 -21.37886,-57.44675 7.85994,-121.34753 65.30669,-142.72639 57.33445,-21.33707 121.12342,7.74398 142.61895,65.01922"
         sodipodi:ry="110.986"
         sodipodi:rx="110.986"
         sodipodi:cy="529.03235"
         sodipodi:cx="286.71384"
         id="path2985-7-5"
         style="color:#000000;fill:#00a0ff;fill-opacity:1;stroke:none;stroke-width:2;marker:none;visibility:visible;display:inline;overflow:visible;enable-background:accumulate"
         sodipodi:type="arc" />
      <path
         sodipodi:nodetypes="cc"
         inkscape:connector-curvature="0"
         id="path3005"
         d="m 127.45721,143.81276 95,0"
         style="fill:none;stroke:#00a0ff;stroke-width:6.4000001;stroke-linecap:butt;stroke-linejoin:miter;stroke-miterlimit:4;stroke-opacity:1;stroke-dasharray:none" />
    </g>
    <g
       id="g4581"
       transform="matrix(0.15543357,0,0,0.15543357,-2.7176135,991.80501)">
      <g
         transform="translate(-94.3191,-417.59052)"
         id="g3850">
        <path
           sodipodi:type="arc"
           style="color:#000000;fill:#00a0ff;fill-opacity:1;stroke:none;stroke-width:2;marker:none;visibility:visible;display:inline;overflow:visible;enable-background:accumulate"
           id="path2985-5"
           sodipodi:cx="286.71384"
           sodipodi:cy="529.03235"
           sodipodi:rx="110.986"
           sodipodi:ry="110.986"
           d="m 390.73037,490.3225 c 21.37886,57.44675 -7.85994,121.34753 -65.30668,142.72638 -57.44675,21.37886 -121.34753,-7.85994 -142.72639,-65.30668 -21.37886,-57.44675 7.85994,-121.34753 65.30669,-142.72639 57.33445,-21.33707 121.12342,7.74398 142.61895,65.01922"
           sodipodi:start="5.9269148"
           sodipodi:end="12.207335"
           sodipodi:open="true"
           transform="matrix(0.89933288,0,0,0.89933288,-37.420652,222.04724)" />
        <path
           sodipodi:nodetypes="csssc"
           inkscape:connector-curvature="0"
           id="path2985-7-9"
           d="m 390.73037,490.3225 c 21.37886,57.44675 -7.85994,121.34753 -65.30668,142.72638 -57.44675,21.37886 -121.34753,-7.85994 -142.72639,-65.30668 -21.37886,-57.44675 7.85994,-121.34753 65.30669,-142.72639 57.33445,-21.33707 121.12342,7.74398 142.61895,65.01922"
           style="color:#000000;fill:#fdfaff;fill-opacity:1;stroke:none;stroke-width:2;marker:none;visibility:visible;display:inline;overflow:visible;enable-background:accumulate"
           transform="matrix(0.84726368,0,0,0.86114874,-22.272212,242.48693)" />
        <path
           sodipodi:type="arc"
           style="color:#000000;fill:#00a0ff;fill-opacity:1;stroke:none;stroke-width:2;marker:none;visibility:visible;display:inline;overflow:visible;enable-background:accumulate"
           id="path2985-7-5-1"
           sodipodi:cx="286.71384"
           sodipodi:cy="529.03235"
           sodipodi:rx="110.986"
           sodipodi:ry="110.986"
           d="m 390.73037,490.3225 c 21.37886,57.44675 -7.85994,121.34753 -65.30668,142.72638 -57.44675,21.37886 -121.34753,-7.85994 -142.72639,-65.30668 -21.37886,-57.44675 7.85994,-121.34753 65.30669,-142.72639 57.33445,-21.33707 121.12342,7.74398 142.61895,65.01922"
           sodipodi:start="5.9269148"
           sodipodi:end="12.207335"
           sodipodi:open="true"
           transform="matrix(0.33351422,0,0,0.33897989,125.02686,518.73123)" />
      </g>
      <path
         inkscape:connector-curvature="0"
         id="path3009"
         d="m 27.45721,283.24976 80,0"
         style="fill:none;stroke:#00a0ff;stroke-width:6.19999981;stroke-linecap:butt;stroke-linejoin:miter;stroke-miterlimit:4;stroke-opacity:1;stroke-dasharray:none" />
    </g>
    <path
       transform="matrix(0.01724077,0,0,0.01752332,9.9694157,1023.5927)"
       sodipodi:open="true"
       sodipodi:end="12.207335"
       sodipodi:start="5.9269148"
       d="m 390.73037,490.3225 a 110.986,110.986 0 1 1 -0.10743,-0.28747"
       sodipodi:ry="110.986"
       sodipodi:rx="110.986"
       sodipodi:cy="529.03235"
       sodipodi:cx="286.71384"
       id="path2985-7-5-19"
       style="color:#000000;fill:#ffffff;fill-opacity:1;stroke:none;stroke-width:2;marker:none;visibility:visible;display:inline;overflow:visible;enable-background:accumulate"
       sodipodi:type="arc" />
    <path
       transform="matrix(0.01724077,0,0,0.01752332,9.9694157,1007.9968)"
       sodipodi:open="true"
       sodipodi:end="12.207335"
       sodipodi:start="5.9269148"
       d="m 390.73037,490.3225 a 110.986,110.986 0 1 1 -0.10743,-0.28747"
       sodipodi:ry="110.986"
       sodipodi:rx="110.986"
       sodipodi:cy="529.03235"
       sodipodi:cx="286.71384"
       id="path2985-7-5-19-7"
       style="color:#000000;fill:#ffffff;fill-opacity:1;stroke:none;stroke-width:2;marker:none;visibility:visible;display:inline;overflow:visible;enable-background:accumulate"
       sodipodi:type="arc" />
  </g>
</svg>
