<?xml version="1.0" encoding="UTF-8" standalone="no"?>
<!-- Created with Inkscape (http://www.inkscape.org/) -->

<svg
   xmlns:dc="http://purl.org/dc/elements/1.1/"
   xmlns:cc="http://creativecommons.org/ns#"
   xmlns:rdf="http://www.w3.org/1999/02/22-rdf-syntax-ns#"
   xmlns:svg="http://www.w3.org/2000/svg"
   xmlns="http://www.w3.org/2000/svg"
   xmlns:xlink="http://www.w3.org/1999/xlink"
   xmlns:sodipodi="http://sodipodi.sourceforge.net/DTD/sodipodi-0.dtd"
   xmlns:inkscape="http://www.inkscape.org/namespaces/inkscape"
   width="32"
   height="32"
   id="svg3923"
   version="1.1"
   inkscape:version="0.48.3.1 r9886"
   sodipodi:docname="marker_blue.svg">
  <defs
     id="defs3925">
    <linearGradient
       gradientTransform="matrix(0.14168958,0,0,0.14255361,-18.102583,981.74272)"
       inkscape:collect="always"
       xlink:href="#linearGradient3784-5"
       id="linearGradient3796-4"
       x1="250.37062"
       y1="385.49463"
       x2="404.68707"
       y2="386.28192"
       gradientUnits="userSpaceOnUse" />
    <linearGradient
       id="linearGradient3784-5">
      <stop
         style="stop-color:#00c8ff;stop-opacity:1;"
         offset="0"
         id="stop3786-1" />
      <stop
         style="stop-color:#0068ff;stop-opacity:1;"
         offset="1"
         id="stop3788-3" />
    </linearGradient>
  </defs>
  <sodipodi:namedview
     id="base"
     pagecolor="#ffffff"
     bordercolor="#666666"
     borderopacity="1.0"
     inkscape:pageopacity="0.0"
     inkscape:pageshadow="2"
     inkscape:zoom="7.9678749"
     inkscape:cx="50.298942"
     inkscape:cy="27.167487"
     inkscape:document-units="px"
     inkscape:current-layer="layer1"
     showgrid="false"
     inkscape:window-width="1920"
     inkscape:window-height="1056"
     inkscape:window-x="0"
     inkscape:window-y="24"
     inkscape:window-maximized="1" />
  <metadata
     id="metadata3928">
    <rdf:RDF>
      <cc:Work
         rdf:about="">
        <dc:format>image/svg+xml</dc:format>
        <dc:type
           rdf:resource="http://purl.org/dc/dcmitype/StillImage" />
        <dc:title></dc:title>
      </cc:Work>
    </rdf:RDF>
  </metadata>
  <g
     inkscape:label="Layer 1"
     inkscape:groupmode="layer"
     id="layer1"
     transform="translate(0,-1020.3622)">
    <rect
       style="opacity:0.96000001;fill:#0055ff;fill-opacity:1;stroke:none;display:inline"
       id="rect2985-3"
       width="31.905106"
       height="32.099663"
       x="0.081098415"
       y="1020.4221"
       ry="2.6936779" />
    <rect
       style="opacity:0.96000001;fill:#009fff;fill-opacity:1;stroke:none;display:inline"
       id="rect2985-4-6"
       width="28.112188"
       height="28.283619"
       x="1.9775571"
       y="1022.3301"
       ry="2.3734508" />
    <rect
       ry="2.3734508"
       y="1022.3301"
       x="1.9775571"
       height="28.283619"
       width="28.112188"
       id="rect3774-7"
       style="opacity:0.96000001;fill:url(#linearGradient3796-4);fill-opacity:1;stroke:none;display:inline" />
    <path
       style="opacity:0.96000001;fill:#ffffff;fill-opacity:1;stroke:none"
       d="m 12.690555,1028.5321 c -2.892419,0 -5.2136346,1.9277 -5.2136346,4.3381 0,1.3698 0.765349,2.5827 1.9501376,3.3829 l -0.7163776,0 0,2.7859 -3.78088,-2.5074 0,7.5618 3.78088,-2.9849 0,3.3033 16.9542676,0 0,-8.1587 -0.477585,0 c 1.177446,-0.8003 1.950139,-2.018 1.950139,-3.3829 0,-2.4104 -2.361016,-4.3381 -5.253435,-4.3381 -1.981737,0 -3.687288,0.9157 -4.576856,2.2685 -0.889568,-1.3528 -2.634919,-2.2685 -4.616656,-2.2685 z m 4.616656,6.4076 c 0.330871,0.512 0.775141,0.9499 1.313359,1.3134 l -2.626718,0 c 0.532557,-0.362 0.985113,-0.8055 1.313359,-1.3134 z"
       id="path5297"
       inkscape:connector-curvature="0" />
  </g>
</svg>
